<svg width="200" height="171" viewBox="0 0 200 171" fill="none" xmlns="http://www.w3.org/2000/svg">
<path d="M98.6276 113.149H91.5814C90.1287 113.149 88.9427 111.974 88.9427 110.512V107.716C88.9427 106.264 90.1188 105.079 91.5814 105.079H98.6276C100.08 105.079 101.266 106.254 101.266 107.716V110.512C101.266 111.974 100.09 113.149 98.6276 113.149Z" fill="#0A0B0D"/>
<path d="M0 136.786V119.372C0 118.602 0.0691747 117.95 0.197647 117.406C0.336003 116.873 0.563298 116.428 0.889421 116.083C1.21554 115.747 1.64051 115.5 2.18404 115.342C2.72758 115.194 3.39959 115.115 4.20007 115.115H13.1734C13.5687 115.115 13.9047 115.184 14.1715 115.332C14.4384 115.48 14.6657 115.668 14.8436 115.895C15.0214 116.132 15.1499 116.389 15.2389 116.675C15.3179 116.962 15.3575 117.238 15.3575 117.515C15.3575 117.782 15.3179 118.058 15.2389 118.335C15.1598 118.611 15.0313 118.868 14.8633 119.086C14.6953 119.313 14.468 119.491 14.1913 119.619C13.9146 119.747 13.5786 119.826 13.1833 119.826H6.34458C6.03822 119.826 5.8307 119.876 5.72199 119.975C5.61328 120.073 5.56387 120.281 5.56387 120.607V123.995H12.4816C12.8769 123.995 13.2031 124.064 13.4798 124.212C13.7466 124.35 13.9739 124.548 14.1518 124.775C14.3297 125.012 14.4581 125.269 14.5471 125.555C14.6261 125.842 14.6657 126.118 14.6657 126.385C14.6657 126.652 14.6261 126.928 14.5471 127.205C14.468 127.482 14.3395 127.738 14.1715 127.956C14.0035 128.183 13.7762 128.361 13.4995 128.499C13.2228 128.637 12.8868 128.697 12.4915 128.697H5.57374V136.777H0V136.786Z" fill="#0A0B0D"/>
<path d="M155.067 115.115C152.141 123.768 143.959 130.01 134.313 130.01C122.217 130.01 112.404 120.202 112.404 108.111C112.404 96.0211 122.217 86.2125 134.313 86.2125C143.939 86.2125 152.112 92.4256 155.057 101.059H164.485C161.293 87.3584 148.999 77.1448 134.313 77.1448C117.197 77.1448 103.332 91.0131 103.332 108.111C103.332 125.21 117.207 139.078 134.313 139.078C149.019 139.078 161.312 128.845 164.495 115.115H155.067Z" fill="#0A0B0D"/>
<path d="M177.629 117.841C177.629 117.396 177.708 117.001 177.856 116.656C178.004 116.32 178.212 116.033 178.459 115.826C178.706 115.609 179.002 115.451 179.338 115.342C179.674 115.233 180.02 115.184 180.406 115.184C181.157 115.184 181.809 115.401 182.362 115.826C182.906 116.261 183.183 116.932 183.183 117.841V129.497C183.183 131.008 182.916 132.262 182.372 133.27C181.838 134.277 181.147 135.087 180.297 135.71C179.457 136.332 178.518 136.767 177.5 137.023C176.472 137.28 175.484 137.409 174.506 137.409C173.537 137.409 172.539 137.28 171.521 137.023C170.493 136.767 169.564 136.322 168.724 135.71C167.884 135.087 167.193 134.277 166.649 133.27C166.115 132.262 165.839 131.008 165.839 129.497V117.841C165.839 117.396 165.918 117.001 166.066 116.656C166.214 116.32 166.422 116.033 166.669 115.826C166.916 115.609 167.212 115.451 167.548 115.342C167.884 115.233 168.23 115.184 168.616 115.184C169.367 115.184 170.019 115.401 170.572 115.826C171.116 116.261 171.393 116.932 171.393 117.841V129.714C171.393 130.218 171.482 130.652 171.679 131.028C171.867 131.403 172.114 131.719 172.42 131.966C172.727 132.223 173.063 132.411 173.428 132.529C173.794 132.658 174.16 132.717 174.516 132.717C174.871 132.717 175.237 132.658 175.603 132.529C175.968 132.401 176.304 132.213 176.611 131.966C176.917 131.719 177.164 131.403 177.352 131.028C177.54 130.652 177.638 130.208 177.638 129.714V117.841H177.629Z" fill="#0A0B0D"/>
<path d="M189.912 121.417C189.893 121.92 190.179 122.345 190.772 122.711C191.365 123.066 192.195 123.432 193.273 123.787L194.597 124.242C195.387 124.528 196.099 124.884 196.741 125.318C197.384 125.753 197.927 126.257 198.372 126.84C198.817 127.422 199.153 128.074 199.37 128.805C199.587 129.536 199.667 130.326 199.617 131.186C199.489 133.102 198.718 134.594 197.285 135.65C195.862 136.707 193.915 137.241 191.454 137.241C190.248 137.241 189.092 137.112 187.985 136.846C186.869 136.589 185.95 136.164 185.208 135.591C184.951 135.374 184.744 135.127 184.566 134.85C184.388 134.574 184.26 134.277 184.171 133.971C184.092 133.665 184.072 133.349 184.131 133.013C184.191 132.677 184.309 132.361 184.507 132.055C184.704 131.749 184.981 131.522 185.347 131.354C185.712 131.186 186.068 131.107 186.424 131.087C186.888 131.067 187.264 131.136 187.541 131.304C187.817 131.462 188.084 131.62 188.331 131.759C188.638 131.956 189.033 132.124 189.517 132.253C190.001 132.391 190.703 132.46 191.612 132.46C192.363 132.46 192.946 132.322 193.361 132.055C193.777 131.788 193.994 131.354 194.004 130.761C194.004 130.514 193.905 130.267 193.707 130.03C193.51 129.793 193.223 129.586 192.857 129.388C192.492 129.19 192.067 128.993 191.583 128.815C191.098 128.627 190.575 128.44 190.021 128.262C189.804 128.193 189.576 128.114 189.339 128.015C189.102 127.916 188.895 127.847 188.736 127.768C187.709 127.333 186.888 126.8 186.256 126.168C185.623 125.526 185.159 124.844 184.843 124.094C184.527 123.353 184.368 122.582 184.358 121.792C184.349 121.002 184.457 120.261 184.695 119.56C185.159 118.108 186.029 116.982 187.294 116.191C188.559 115.401 190.12 115.006 191.968 115.006C192.67 115.006 193.282 115.036 193.816 115.095C194.35 115.154 194.814 115.243 195.219 115.342C195.625 115.441 195.97 115.559 196.267 115.688C196.563 115.826 196.84 115.954 197.087 116.083C197.72 116.428 198.204 116.903 198.56 117.505C198.906 118.118 198.985 118.74 198.787 119.392C198.609 119.945 198.303 120.34 197.888 120.577C197.463 120.814 196.998 120.923 196.474 120.923C196.277 120.923 196.05 120.883 195.802 120.814C195.555 120.745 195.358 120.666 195.239 120.567C194.913 120.35 194.508 120.162 194.004 120.004C193.5 119.846 192.848 119.757 192.037 119.757C191.395 119.757 190.881 119.886 190.515 120.152C190.12 120.449 189.932 120.864 189.912 121.417Z" fill="#0A0B0D"/>
<path d="M75.2357 152.976C75.2357 153.697 75.0578 154.359 74.702 154.971C74.3463 155.584 73.7928 156.097 73.0615 156.502C74.0498 156.897 74.7811 157.451 75.2357 158.162C75.6903 158.873 75.9275 159.673 75.9275 160.582V160.602C75.9275 161.579 75.7496 162.409 75.3938 163.091C75.038 163.772 74.534 164.316 73.9015 164.74C73.2691 165.165 72.518 165.461 71.6582 165.659C70.7984 165.847 69.8497 165.945 68.8318 165.945H64.8491C64.1574 165.945 63.5842 165.876 63.1296 165.748C62.675 165.619 62.3093 165.412 62.0326 165.116C61.7559 164.829 61.5583 164.454 61.4496 163.99C61.331 163.535 61.2816 162.972 61.2816 162.32V151.119C61.2816 150.467 61.3409 149.904 61.4496 149.45C61.5682 148.995 61.7559 148.62 62.0326 148.324C62.3093 148.037 62.675 147.82 63.1296 147.691C63.5842 147.563 64.1574 147.494 64.8491 147.494H68.1993C69.2568 147.494 70.2154 147.612 71.0751 147.849C71.9349 148.086 72.6761 148.432 73.2987 148.877C73.9213 149.331 74.3957 149.884 74.7416 150.546C75.0874 151.208 75.2554 151.968 75.2554 152.828V152.976H75.2357ZM66.5687 151.395C66.3118 151.395 66.1339 151.435 66.0449 151.524C65.956 151.603 65.9066 151.791 65.9066 152.057V154.853H68.4069C68.7923 154.853 69.1184 154.803 69.3951 154.705C69.6718 154.606 69.8991 154.477 70.0671 154.309C70.245 154.151 70.3735 153.974 70.4624 153.786C70.5415 153.598 70.5909 153.401 70.5909 153.203V153.045C70.5909 152.63 70.4229 152.255 70.077 151.909C69.7311 151.563 69.1777 151.395 68.4167 151.395H66.5687ZM65.9066 158.586V161.382C65.9066 161.658 65.956 161.836 66.0449 161.915C66.1339 161.994 66.3118 162.044 66.5687 162.044H69.0888C69.8497 162.044 70.4031 161.876 70.749 161.53C71.0949 161.184 71.2629 160.809 71.2629 160.394V160.236C71.2629 159.821 71.0949 159.446 70.749 159.1C70.4031 158.754 69.8497 158.586 69.0888 158.586H65.9066Z" fill="#387FBC"/>
<path d="M82.7958 166.331C82.0645 166.331 81.3826 166.232 80.7403 166.034C80.1078 165.837 79.5544 165.501 79.0899 165.017C78.6254 164.533 78.2499 163.891 77.9831 163.081C77.7063 162.271 77.568 161.263 77.568 160.058V153.924C77.568 153.134 77.8052 152.551 78.2696 152.186C78.7341 151.82 79.2876 151.633 79.9299 151.633C80.5723 151.633 81.1257 151.81 81.5902 152.186C82.0547 152.551 82.2918 153.134 82.2918 153.924V160.335C82.2918 160.73 82.3511 161.056 82.4598 161.323C82.5784 161.579 82.7168 161.797 82.8947 161.965C83.0726 162.133 83.2603 162.251 83.4777 162.32C83.6952 162.389 83.9027 162.419 84.1003 162.419C84.2881 162.419 84.4858 162.38 84.6933 162.32C84.9107 162.251 85.0985 162.142 85.2764 161.984C85.4543 161.836 85.6025 161.629 85.7211 161.372C85.8397 161.125 85.9088 160.809 85.9286 160.443V153.895C85.9286 153.114 86.1559 152.541 86.6006 152.176C87.0552 151.81 87.5988 151.623 88.2411 151.623C88.8835 151.623 89.4369 151.8 89.8915 152.176C90.3461 152.541 90.5833 153.114 90.5833 153.895V165.945H86.9366L86.6797 164.454C86.2547 165.037 85.7013 165.491 85.0293 165.827C84.3672 166.163 83.6161 166.331 82.7958 166.331Z" fill="#387FBC"/>
<path d="M102.343 165.935L102.086 164.444C101.642 165.027 101.098 165.481 100.446 165.817C99.7937 166.153 99.0624 166.321 98.2323 166.321C97.4713 166.321 96.7499 166.222 96.0779 166.015C95.4059 165.807 94.8129 165.461 94.2991 164.967C93.7852 164.483 93.38 163.832 93.0835 163.022C92.787 162.212 92.6388 161.204 92.6388 159.999V157.935C92.6388 156.729 92.787 155.722 93.0835 154.912C93.38 154.102 93.7852 153.45 94.2991 152.966C94.8129 152.482 95.4059 152.126 96.0779 151.919C96.7499 151.712 97.4713 151.613 98.2323 151.613C98.8747 151.613 99.4478 151.712 99.9617 151.899C100.476 152.087 100.93 152.354 101.326 152.689V148.867C101.326 148.482 101.395 148.156 101.523 147.869C101.652 147.583 101.82 147.346 102.037 147.158C102.254 146.97 102.502 146.822 102.778 146.723C103.065 146.625 103.351 146.575 103.658 146.575C103.964 146.575 104.251 146.625 104.527 146.723C104.804 146.822 105.051 146.97 105.259 147.158C105.476 147.346 105.644 147.583 105.773 147.869C105.901 148.156 105.97 148.482 105.97 148.867V165.926H102.343V165.935ZM97.3626 160.325C97.3626 160.72 97.4318 161.046 97.5603 161.313C97.6888 161.57 97.8568 161.787 98.0544 161.955C98.2521 162.123 98.4695 162.241 98.6968 162.31C98.9241 162.38 99.1415 162.409 99.3392 162.409C99.5368 162.409 99.7443 162.37 99.9716 162.31C100.189 162.241 100.406 162.133 100.604 161.975C100.802 161.826 100.97 161.619 101.108 161.362C101.246 161.115 101.326 160.799 101.335 160.434V157.5C101.316 157.134 101.246 156.828 101.108 156.571C100.97 156.315 100.802 156.117 100.604 155.969C100.406 155.821 100.199 155.702 99.9716 155.633C99.7542 155.564 99.5368 155.534 99.3392 155.534C99.1415 155.534 98.9241 155.574 98.6968 155.633C98.4695 155.702 98.2521 155.821 98.0544 155.989C97.8568 156.157 97.6888 156.374 97.5603 156.641C97.4318 156.907 97.3626 157.233 97.3626 157.618V160.325Z" fill="#387FBC"/>
<path d="M117.829 165.935L117.572 164.444C117.128 165.027 116.584 165.481 115.932 165.817C115.28 166.153 114.548 166.321 113.718 166.321C112.957 166.321 112.236 166.222 111.564 166.015C110.892 165.807 110.299 165.461 109.785 164.967C109.271 164.483 108.866 163.832 108.569 163.022C108.273 162.212 108.125 161.204 108.125 159.999V157.935C108.125 156.729 108.273 155.722 108.569 154.912C108.866 154.102 109.271 153.45 109.785 152.966C110.299 152.482 110.892 152.126 111.564 151.919C112.236 151.712 112.957 151.613 113.718 151.613C114.361 151.613 114.934 151.712 115.448 151.899C115.962 152.087 116.416 152.354 116.812 152.689V148.867C116.812 148.482 116.881 148.156 117.009 147.869C117.138 147.583 117.306 147.346 117.523 147.158C117.74 146.97 117.988 146.822 118.264 146.723C118.551 146.625 118.837 146.575 119.144 146.575C119.45 146.575 119.737 146.625 120.013 146.723C120.29 146.822 120.537 146.97 120.745 147.158C120.962 147.346 121.13 147.583 121.259 147.869C121.387 148.156 121.456 148.482 121.456 148.867V165.926H117.829V165.935ZM112.858 160.325C112.858 160.72 112.928 161.046 113.056 161.313C113.185 161.57 113.353 161.787 113.55 161.955C113.748 162.123 113.965 162.241 114.193 162.31C114.42 162.38 114.637 162.409 114.835 162.409C115.033 162.409 115.24 162.37 115.467 162.31C115.685 162.241 115.902 162.133 116.1 161.975C116.298 161.826 116.466 161.619 116.604 161.362C116.742 161.115 116.821 160.799 116.831 160.434V157.5C116.812 157.134 116.742 156.828 116.604 156.571C116.466 156.315 116.298 156.117 116.1 155.969C115.902 155.821 115.695 155.702 115.467 155.633C115.25 155.564 115.033 155.534 114.835 155.534C114.637 155.534 114.42 155.574 114.193 155.633C113.965 155.702 113.748 155.821 113.55 155.989C113.353 156.157 113.185 156.374 113.056 156.641C112.928 156.907 112.858 157.233 112.858 157.618V160.325Z" fill="#387FBC"/>
<path d="M132.06 165.916C131.359 167.536 130.41 168.682 129.234 169.353C128.048 170.025 126.654 170.242 125.053 170.015C124.717 169.966 124.431 169.877 124.184 169.729C123.937 169.58 123.739 169.403 123.571 169.195C123.413 168.978 123.304 168.751 123.235 168.504C123.176 168.257 123.156 168.01 123.186 167.753C123.265 167.229 123.492 166.805 123.858 166.459C124.233 166.113 124.767 166.005 125.449 166.123C125.923 166.212 126.368 166.192 126.803 166.054C127.228 165.916 127.534 165.669 127.722 165.323V165.303L123.047 154.902C122.899 154.566 122.82 154.24 122.83 153.914C122.84 153.598 122.899 153.292 123.028 153.025C123.146 152.749 123.324 152.512 123.541 152.304C123.759 152.097 124.026 151.939 124.332 151.83C124.619 151.721 124.925 151.662 125.251 151.652C125.567 151.633 125.874 151.682 126.16 151.781C126.447 151.88 126.694 152.038 126.931 152.265C127.158 152.492 127.346 152.778 127.485 153.144L130.123 160.266L132.554 153.144C132.673 152.778 132.851 152.482 133.078 152.265C133.305 152.047 133.562 151.88 133.849 151.781C134.136 151.682 134.422 151.642 134.728 151.652C135.035 151.672 135.341 151.731 135.648 151.83C135.934 151.939 136.191 152.097 136.418 152.304C136.636 152.512 136.804 152.749 136.922 153.025C137.041 153.302 137.09 153.598 137.09 153.914C137.09 154.23 137.021 154.566 136.883 154.902L132.06 165.916Z" fill="#387FBC"/>
<path d="M55.9054 77.1349C38.7889 77.1349 24.9237 91.0032 24.9237 108.102C24.9237 125.2 38.7988 139.068 55.9054 139.068C73.022 139.068 86.8871 125.2 86.8871 108.102C86.8871 91.0032 73.022 77.1349 55.9054 77.1349ZM55.9054 86.2125C56.5083 86.2125 57.1012 86.2422 57.6942 86.2916L34.0749 109.899C34.0255 109.307 33.9959 108.714 33.9959 108.111C33.9959 96.0112 43.8092 86.2125 55.9054 86.2125ZM55.9054 130.01C45.7462 130.01 37.2077 123.106 34.7272 113.732L61.074 87.3979C61.2222 87.2497 61.2914 87.0719 61.3309 86.8941C62.4872 87.1904 63.6039 87.5757 64.6811 88.0498L46.013 106.709C45.6078 107.114 45.6078 107.766 46.013 108.171L46.9222 109.079C47.3274 109.484 47.9796 109.484 48.3848 109.079L67.7645 89.7093C73.8027 93.6109 77.8051 100.397 77.8051 108.111C77.815 120.202 68.0016 130.01 55.9054 130.01Z" fill="#0A0B0D"/>
<path d="M73.9213 31.8555C69.5433 32.4877 62.339 32.6754 52.7332 29.8899C52.7332 29.8899 46.9717 26.2845 49.8475 33.4952C52.7332 40.6961 62.675 42.7111 62.675 42.7111C62.675 42.7111 49.9957 62.8814 49.8475 74.3988C49.8475 74.3988 49.2743 79.15 52.8715 75.9793C52.8715 75.9793 64.8294 61.864 70.6008 62.5851C70.6008 62.5851 67.7151 70.665 69.3062 77.0757C69.3062 77.0757 70.3142 79.4661 72.4784 77.0757C72.4784 77.0757 77.815 69.6476 86.1657 67.3461C86.1657 67.3461 84.8711 76.404 86.0175 78.1425C86.0175 78.1425 87.3121 81.1552 89.259 78.1425C89.259 78.1425 102.739 65.3311 113.689 68.7883C124.638 72.2455 124.213 82.0442 124.213 82.0442C124.213 82.0442 127.099 85.6495 128.829 82.7652C130.558 79.881 130.271 69.2229 130.271 69.2229C130.271 69.2229 140.075 74.6952 142.229 82.3306C144.384 89.9661 147.852 83.8814 147.852 83.8814C147.852 83.8814 156.43 62.0912 144.374 43.3631C136.211 49.2008 125.953 52.6777 114.805 52.6777C97.5603 52.6777 82.4302 44.3508 73.9213 31.8555Z" fill="url(#paint0_linear)"/>
<path d="M164.139 13.888L162.696 13.3348C162.568 14.4115 162.39 15.4783 162.182 16.5253L163.022 16.8414C163.556 17.0489 164.159 16.7723 164.356 16.2389L164.752 15.2116C164.939 14.6881 164.673 14.0855 164.139 13.888Z" fill="#387FBC"/>
<path d="M110.388 32.626L107.937 34.2064C107.937 34.2064 102.946 22.6693 78.6846 30.7492C78.2004 30.9073 76.5797 31.4604 73.9312 31.8457C82.44 44.3508 97.5701 52.6679 114.815 52.6679C125.963 52.6679 136.221 49.181 144.384 43.3532C144.245 43.1359 144.117 42.9186 143.969 42.7012C131.279 23.8348 110.388 32.626 110.388 32.626Z" fill="url(#paint1_linear)"/>
<path opacity="0.8" d="M110.388 32.626L107.937 34.2064C107.937 34.2064 102.946 22.6693 78.6846 30.7492C78.2004 30.9073 76.5797 31.4604 73.9312 31.8457C82.44 44.3508 97.5701 52.6679 114.815 52.6679C125.963 52.6679 136.221 49.181 144.384 43.3532C144.245 43.1359 144.117 42.9186 143.969 42.7012C131.279 23.8348 110.388 32.626 110.388 32.626Z" fill="url(#paint2_linear)"/>
<path d="M127.821 0.0690978C127.287 -0.138334 126.684 0.138242 126.486 0.671638L126.091 1.69891C125.884 2.23231 126.16 2.83486 126.694 3.03241L162.172 16.5253C162.38 15.4684 162.558 14.4115 162.686 13.3348L127.821 0.0690978Z" fill="#387FBC"/>
<path opacity="0.8" d="M127.821 0.0690978C127.287 -0.138334 126.684 0.138242 126.486 0.671638L126.091 1.69891C125.884 2.23231 126.16 2.83486 126.694 3.03241L162.172 16.5253C162.38 15.4684 162.558 14.4115 162.686 13.3348L127.821 0.0690978Z" fill="url(#paint3_linear)"/>
<path d="M130.568 27.8057L142.723 32.4285C145.135 33.3471 147.833 32.1321 148.742 29.7318L152.161 20.753C153.08 18.3428 151.865 15.6462 149.463 14.7375L137.308 10.1147C134.896 9.19609 132.199 10.411 131.289 12.8113L127.87 21.7902C126.951 24.1904 128.157 26.8871 130.568 27.8057Z" fill="#387FBC"/>
<path opacity="0.8" d="M130.568 27.8057L142.723 32.4285C145.135 33.3471 147.833 32.1321 148.742 29.7318L152.161 20.753C153.08 18.3428 151.865 15.6462 149.463 14.7375L137.308 10.1147C134.896 9.19609 132.199 10.411 131.289 12.8113L127.87 21.7902C126.951 24.1904 128.157 26.8871 130.568 27.8057Z" fill="url(#paint4_linear)"/>
<defs>
<linearGradient id="paint0_linear" x1="64.4028" y1="90.9385" x2="128.704" y2="26.6063" gradientUnits="userSpaceOnUse">
<stop stop-color="#18A060"/>
<stop offset="1" stop-color="#387FBC"/>
</linearGradient>
<linearGradient id="paint1_linear" x1="60.096" y1="86.6338" x2="124.397" y2="22.3017" gradientUnits="userSpaceOnUse">
<stop stop-color="#18A060"/>
<stop offset="1" stop-color="#387FBC"/>
</linearGradient>
<linearGradient id="paint2_linear" x1="130.098" y1="58.5557" x2="64.7149" y2="-6.85875" gradientUnits="userSpaceOnUse">
<stop stop-color="white" stop-opacity="0"/>
<stop offset="1" stop-color="white"/>
</linearGradient>
<linearGradient id="paint3_linear" x1="162.562" y1="26.1073" x2="97.1791" y2="-39.307" gradientUnits="userSpaceOnUse">
<stop stop-color="white" stop-opacity="0"/>
<stop offset="1" stop-color="white"/>
</linearGradient>
<linearGradient id="paint4_linear" x1="153.714" y1="34.9508" x2="88.3313" y2="-30.4636" gradientUnits="userSpaceOnUse">
<stop stop-color="white" stop-opacity="0"/>
<stop offset="1" stop-color="white"/>
</linearGradient>
</defs>
</svg>

